<svg width="75" height="75" viewBox="0 0 75 75" fill="none" xmlns="http://www.w3.org/2000/svg">
<circle cx="37.5" cy="37.5" r="36.5" fill="white" stroke="#00A3FF" stroke-width="2"/>
<g clip-path="url(#clip0_1013_5)">
<path fill-rule="evenodd" clip-rule="evenodd" d="M30.3359 10C41.5703 15.3438 50.3945 23.2305 53.5468 36.6484C55.8906 46.6328 51.8672 53.5625 46.0976 57.2773C44.6133 58.2344 41.0351 60.4492 38.7929 59.8555C38.7968 59.7734 38.7929 59.7891 38.7968 59.7109C43.7539 58.6836 47.2031 51.7852 43.8047 46.5312C42.3203 44.2344 39.3554 42.9492 38.2187 40.3711C37.2343 38.1445 38.0859 35.1367 38.7929 33.3516C34.0898 36.2422 29.6758 40.4492 27.9062 46.2461C25.9804 52.5508 28.4336 58.7031 33.6367 59.7148C33.6367 59.8086 33.6367 59.9063 33.6367 60C23.8203 58.7852 14.5703 48.5078 19.4492 36.6484C22.2578 29.8203 28.9179 26.5117 31.625 19.8867C33.125 16.2109 31.2343 12.7695 30.3359 10Z" fill="#00A3FF"/>
</g>
<defs>
<clipPath id="clip0_1013_5">
<rect width="36.3281" height="50" fill="white" transform="translate(18 10)"/>
</clipPath>
</defs>
</svg>
