<?xml version="1.0" encoding="utf-8"?>
<!-- Generator: Adobe Illustrator 23.1.0, SVG Export Plug-In . SVG Version: 6.00 Build 0)  -->
<svg version="1.1" id="Layer_1" xmlns="http://www.w3.org/2000/svg" xmlns:xlink="http://www.w3.org/1999/xlink" x="0px" y="0px"
	 viewBox="0 0 27 39" style="enable-background:new 0 0 27 39;" xml:space="preserve">
<style type="text/css">
	.st0{fill-rule:evenodd;clip-rule:evenodd;fill:#FFFFFF;}
</style>
<path class="st0" d="M17.84,9.95c0.63,1.43,1.62,2.81,2.11,3.51c1.77,2.51,2.85,3.14,4.49,5.81c0.54,0.89,0.97,1.59,1.38,2.63
	c0.34,0.87,1.33,3.37,0.88,6.39c-0.73,4.9-4.59,7.79-5.69,8.62c-1.08,0.81-2.33,1.72-4.15,2.02C16.43,38.99,15.39,39,13.32,39
	c-1.79,0-2.7,0-3.09-0.06c-1.74-0.28-2.95-1.09-4.04-1.85c-0.91-0.63-3.05-2.12-4.47-4.79c-1.45-2.71-2-6.19-1.01-10.4
	c0.47-2.02,1.17-4.67,3.46-8.35c0,0,1.07-1.76,2.43-3.49C10.27,5.38,16.43,0.83,17.57,0C16.11,5.2,17.22,8.53,17.84,9.95z"/>
</svg>
