<?xml version="1.0" encoding="utf-8"?>
<!-- Generator: Adobe Illustrator 23.1.0, SVG Export Plug-In . SVG Version: 6.00 Build 0)  -->
<svg version="1.1" id="Layer_2" xmlns="http://www.w3.org/2000/svg" xmlns:xlink="http://www.w3.org/1999/xlink" x="0px" y="0px"
	 viewBox="0 0 47 64" style="enable-background:new 0 0 47 64;" xml:space="preserve">
<style type="text/css">
	.st0{fill-rule:evenodd;clip-rule:evenodd;fill:#00A3FF;}
	.st1{display:none;fill-rule:evenodd;clip-rule:evenodd;fill:#FFFFFF;}
</style>
<path class="st0" d="M16.06,0c9.69,4.29,15.57,9.75,18.67,13.12c2.86,3.11,4.86,6.21,5.03,6.48c0.72,1.13,2.76,4.46,4.47,9.25
	c0.38,1.05,1.07,3,1.54,5.26c0.66,3.12,2.22,10.63-1.76,18.08c-2.63,4.93-6.54,7.55-7.78,8.33c0,0-4.18,2.63-9.16,3.28
	c-1.56,0.2-3.2,0.2-3.2,0.2c0,0-1.81,0-3.66-0.27c-5.47-0.8-9.55-3.31-9.55-3.31c-4.85-2.98-9.14-8.55-10.07-15.21
	c-0.73-5.2,0.9-9.47,1.53-11.11c0.89-2.3,1.92-3.91,2.85-5.34c2.77-4.25,4.41-4.88,7.82-9.3c2.32-3.01,3.48-4.51,4.21-6.56
	C17.73,10.91,18.78,6.52,16.06,0z"/>
<path class="st1" d="M27.79,35.37c0.59,1.45,1.37,2.6,2.08,3.45c2.5,2.12,3.89,4.29,4.63,5.67c0.68,1.27,1.04,2.31,1.15,2.64
	c0.41,1.21,1.27,3.6,0.87,6.3c-0.71,4.82-4.52,7.68-5.6,8.49c-1.06,0.8-2.29,1.7-4.08,1.99c-0.42,0.07-1.45,0.07-3.49,0.07
	c-1.77,0-2.66,0-3.04-0.06c-1.71-0.27-2.9-1.08-3.98-1.82c-0.89-0.62-3-2.09-4.41-4.72c-1.43-2.67-1.97-6.1-1-10.25
	c0.47-1.99,1.16-4.6,3.41-8.23c0,0,1.06-1.74,2.39-3.43c3.62-4.61,9.69-9.09,10.81-9.91C27.05,27.08,26.04,31.08,27.79,35.37z"/>
</svg>
